<svg viewBox="0 0 360 640" xmlns="http://www.w3.org/2000/svg">
  <defs>
    <linearGradient id="bg" x1="0%" y1="0%" x2="100%" y2="100%">
      <stop offset="0%" style="stop-color:#ec4899;stop-opacity:1" />
      <stop offset="100%" style="stop-color:#f472b6;stop-opacity:1" />
    </linearGradient>
  </defs>
  
  <rect width="360" height="640" fill="url(#bg)"/>
  
  <g transform="translate(180,320)">
    <!-- Head -->
    <circle cx="0" cy="-80" r="60" fill="#f3c4a6" stroke="#e8b08f" stroke-width="3"/>
    
    <!-- Long hair -->
    <path d="M -55,-130 Q -60,-100 -45,-70 Q -30,-60 -15,-65 Q 0,-70 15,-65 Q 30,-60 45,-70 Q 60,-100 55,-130 Q 30,-145 0,-140 Q -30,-145 -55,-130" fill="#8b4513"/>
    
    <!-- Eyes -->
    <circle cx="-20" cy="-85" r="4" fill="#2d3748"/>
    <circle cx="20" cy="-85" r="4" fill="#2d3748"/>
    
    <!-- Eyelashes -->
    <path d="M -25,-88 L -22,-92" stroke="#2d3748" stroke-width="1"/>
    <path d="M -18,-88 L -15,-92" stroke="#2d3748" stroke-width="1"/>
    <path d="M 15,-88 L 18,-92" stroke="#2d3748" stroke-width="1"/>
    <path d="M 22,-88 L 25,-92" stroke="#2d3748" stroke-width="1"/>
    
    <!-- Smile -->
    <path d="M -12,-55 Q 0,-48 12,-55" stroke="#2d3748" stroke-width="2" fill="none"/>
    
    <!-- Body -->
    <rect x="-40" y="-20" width="80" height="120" rx="10" fill="#fbbf24"/>
    
    <!-- Arms -->
    <rect x="-55" y="-10" width="15" height="80" rx="7" fill="#f3c4a6"/>
    <rect x="40" y="-10" width="15" height="80" rx="7" fill="#f3c4a6"/>
    
    <!-- Art palette -->
    <ellipse cx="0" cy="30" rx="20" ry="15" fill="#ffffff"/>
    <circle cx="-10" cy="25" r="3" fill="#ef4444"/>
    <circle cx="0" cy="22" r="3" fill="#3b82f6"/>
    <circle cx="10" cy="25" r="3" fill="#eab308"/>
    <circle cx="0" cy="35" r="3" fill="#22c55e"/>
  </g>
  
  <!-- Artistic elements -->
  <circle cx="80" cy="150" r="12" fill="#f59e0b" opacity="0.6"/>
  <polygon points="280,180 300,160 320,180 300,200" fill="#ec4899" opacity="0.6"/>
  <path d="M 60,450 Q 80,430 100,450 Q 80,470 60,450" fill="#8b5cf6" opacity="0.5"/>
  
  <rect x="20" y="550" width="320" height="60" rx="30" fill="rgba(0,0,0,0.7)"/>
  <text x="180" y="575" text-anchor="middle" font-family="Arial, sans-serif" font-size="16" font-weight="bold" fill="#ffffff">ANA</text>
  <text x="180" y="595" text-anchor="middle" font-family="Arial, sans-serif" font-size="14" fill="#f472b6">24 anos • Belo Horizonte, MG</text>
</svg>