<svg viewBox="0 0 360 640" xmlns="http://www.w3.org/2000/svg">
  <defs>
    <linearGradient id="bg" x1="0%" y1="0%" x2="100%" y2="100%">
      <stop offset="0%" style="stop-color:#059669;stop-opacity:1" />
      <stop offset="100%" style="stop-color:#10b981;stop-opacity:1" />
    </linearGradient>
  </defs>
  
  <rect width="360" height="640" fill="url(#bg)"/>
  
  <g transform="translate(180,320)">
    <!-- Head -->
    <circle cx="0" cy="-80" r="60" fill="#d4a574" stroke="#c49363" stroke-width="3"/>
    
    <!-- Hair -->
    <path d="M -50,-125 Q 0,-145 50,-125 Q 50,-105 35,-95 Q 0,-100 -35,-95 Q -50,-105 -50,-125" fill="#1a202c"/>
    
    <!-- Eyes -->
    <circle cx="-20" cy="-85" r="4" fill="#2d3748"/>
    <circle cx="20" cy="-85" r="4" fill="#2d3748"/>
    
    <!-- Beard -->
    <path d="M -30,-40 Q 0,-35 30,-40 Q 30,-25 0,-20 Q -30,-25 -30,-40" fill="#2d3748"/>
    
    <!-- Body -->
    <rect x="-40" y="-20" width="80" height="120" rx="10" fill="#1f2937"/>
    
    <!-- Arms -->
    <rect x="-55" y="-10" width="15" height="80" rx="7" fill="#d4a574"/>
    <rect x="40" y="-10" width="15" height="80" rx="7" fill="#d4a574"/>
    
    <!-- Coding symbols -->
    <text x="-15" y="30" font-family="monospace" font-size="18" fill="#10b981">&lt;/&gt;</text>
  </g>
  
  <rect x="20" y="550" width="320" height="60" rx="30" fill="rgba(0,0,0,0.7)"/>
  <text x="180" y="575" text-anchor="middle" font-family="Arial, sans-serif" font-size="16" font-weight="bold" fill="#ffffff">CARLOS</text>
  <text x="180" y="595" text-anchor="middle" font-family="Arial, sans-serif" font-size="14" fill="#10b981">29 anos • Rio de Janeiro, RJ</text>
</svg>