<svg width="192" height="192" viewBox="0 0 192 192" fill="none" xmlns="http://www.w3.org/2000/svg">
<rect width="192" height="192" rx="24" fill="url(#gradient0_linear_1_1)"/>
<path d="M96 48C74.9039 48 58 64.9039 58 86C58 107.096 74.9039 124 96 124C117.096 124 134 107.096 134 86C134 64.9039 117.096 48 96 48Z" fill="white"/>
<path d="M96 144C120.301 144 140 124.301 140 100C140 75.6995 120.301 56 96 56C71.6995 56 52 75.6995 52 100C52 124.301 71.6995 144 96 144Z" fill="white" fill-opacity="0.8"/>
<text x="96" y="160" text-anchor="middle" fill="white" font-family="Arial, sans-serif" font-size="20" font-weight="bold">MIX</text>
<defs>
<linearGradient id="gradient0_linear_1_1" x1="0" y1="0" x2="192" y2="192" gradientUnits="userSpaceOnUse">
<stop stop-color="#EC4899"/>
<stop offset="1" stop-color="#1E3A8A"/>
</linearGradient>
</defs>
</svg>